<svg xmlns="http://www.w3.org/2000/svg" xmlns:xlink="http://www.w3.org/1999/xlink" viewBox="0,0,256,256" width="50px" height="50px"><g fill="#18bfff" fill-rule="nonzero" stroke="none" stroke-width="1" stroke-linecap="butt" stroke-linejoin="miter" stroke-miterlimit="10" stroke-dasharray="" stroke-dashoffset="0" font-family="none" font-weight="none" font-size="none" text-anchor="none" style="mix-blend-mode: normal"><g transform="scale(5.12,5.12)"><path d="M24.50586,4.00781c-0.52538,0.00025 -1.05152,0.10359 -1.54102,0.30859l-18.74219,7.33008c-0.743,0.313 -1.22266,1.0368 -1.22266,1.8418c-0.001,0.805 0.47714,1.52952 1.24414,1.85352l18.99219,7.43359c0.375,0.159 0.77873,0.23828 1.17773,0.23828c0.389,0 0.77395,-0.07661 1.12695,-0.22461l20.23047,-7.45898c0.748,-0.312 1.22852,-1.03766 1.22852,-1.84766c-0.001,-0.81 -0.48395,-1.53256 -1.25195,-1.85156l-19.70117,-7.31641c-0.49,-0.204 -1.01564,-0.30689 -1.54102,-0.30664zM1.99805,17.00195c-1.056,0 -1.99805,0.85195 -1.99805,2.00195v15.9668c0,1.159 0.95195,2.00391 2.00195,2.00391c0.296,0 0.59958,-0.06784 0.89258,-0.21484l17.98437,-8.92383c1.531,-0.766 1.455,-2.97772 -0.125,-3.63672l-17.98437,-7.04297c-0.255,-0.106 -0.51748,-0.1543 -0.77148,-0.1543zM48.00195,17.00195c-0.241,0 -0.48747,0.04367 -0.73047,0.13867l-19,7.36523c-0.766,0.301 -1.27148,1.03833 -1.27148,1.86133v16.63086c0,1.148 0.94005,2.00195 1.99805,2.00195c0.241,0 0.48747,-0.04367 0.73047,-0.13867l19,-7.43555c0.767,-0.3 1.27148,-1.03833 1.27148,-1.86133v-16.56055c0,-1.148 -0.94005,-2.00195 -1.99805,-2.00195z"></path></g></g></svg>