<svg xmlns="http://www.w3.org/2000/svg" xmlns:xlink="http://www.w3.org/1999/xlink" viewBox="0,0,256,256" width="50px" height="50px"><g fill="#ff584a" fill-rule="nonzero" stroke="none" stroke-width="1" stroke-linecap="butt" stroke-linejoin="miter" stroke-miterlimit="10" stroke-dasharray="" stroke-dashoffset="0" font-family="none" font-weight="none" font-size="none" text-anchor="none" style="mix-blend-mode: normal"><g transform="scale(5.12,5.12)"><path d="M25,6.41406c-2.518,0 -4.55859,2.04159 -4.55859,4.55859c0,2.517 2.04159,4.55664 4.55859,4.55664c2.517,0 4.55859,-2.03964 4.55859,-4.55664c0,-2.517 -2.04159,-4.55759 -4.55859,-4.55859zM19.07813,16.66992c-2.517,0 -4.55664,2.04059 -4.55664,4.55859c0,2.517 2.03964,4.55664 4.55664,4.55664c2.517,0 4.55859,-2.03964 4.55859,-4.55664c0,-2.518 -2.04059,-4.55859 -4.55859,-4.55859zM30.92188,16.66992c-2.517,0 -4.55859,2.04159 -4.55859,4.55859c0,2.517 2.04159,4.55664 4.55859,4.55664c2.517,0 4.55664,-2.03964 4.55664,-4.55664c-0.001,-2.518 -2.03964,-4.55859 -4.55664,-4.55859zM5.50391,31.60742c-2.488,0 -4.50391,2.01686 -4.50391,4.50586c0,2.489 2.01691,4.50781 4.50391,4.50781c1.094,0 2.28695,-0.42503 2.87695,-1.20703c0.04,0.45 0.39848,1.02344 1.02148,1.02344h0.36523c0.141,0 0.25781,-0.11681 0.25781,-0.25781v-8.01758h-0.00195c-0.007,-0.135 -0.11886,-0.24219 -0.25586,-0.24219h-1.13086c-0.137,0 -0.24786,0.10719 -0.25586,0.24219v0.65234c-0.692,-0.853 -1.78295,-1.20703 -2.87695,-1.20703zM15.07422,31.60742c-1.545,0 -3.19922,0.767 -3.19922,2.625c0,1.214 0.91737,1.96513 1.98438,2.32813c1.067,0.363 2.76367,0.50411 2.76367,1.41211c0,0.68 -0.77725,1.07227 -1.53125,1.07227c-0.791,0 -1.61514,-0.25434 -2.36914,-0.77734c-0.07,-0.048 -0.22952,-0.10641 -0.35351,0.05859l-0.62109,0.88867c0,0 -0.13436,0.17619 0.05664,0.36719c0.915,0.672 2.00706,1.03711 3.28906,1.03711c1.691,0 3.2207,-1.01144 3.2207,-2.64844c0,-1.847 -1.64244,-2.33423 -3.14844,-2.74023c-0.864,-0.22 -1.60156,-0.42527 -1.60156,-1.07227c0,-0.54 0.56777,-0.97461 1.50977,-0.97461c0.942,0 1.56033,0.43787 1.73633,0.54688c0.176,0.108 0.29914,0.02287 0.36914,-0.07812l0.625,-0.89258c0,0 0.13711,-0.19619 -0.08789,-0.36719c-0.654,-0.462 -1.66458,-0.78516 -2.64258,-0.78516zM23.90625,31.60742c-2.487,0 -4.50195,2.01686 -4.50195,4.50586c0,2.489 2.01495,4.50781 4.50195,4.50781c1.094,0 2.28695,-0.42503 2.87695,-1.20703c0.04,0.45 0.40044,1.02344 1.02344,1.02344h0.36523c0.141,0 0.25586,-0.11681 0.25586,-0.25781v-8.01758c-0.007,-0.135 -0.11886,-0.24219 -0.25586,-0.24219h-1.13086c-0.137,0 -0.24786,0.10719 -0.25586,0.24219h-0.00195v0.65234c-0.692,-0.853 -1.78295,-1.20703 -2.87695,-1.20703zM44.47852,31.60742c-2.487,0 -4.50391,2.01686 -4.50391,4.50586c0,2.489 2.01691,4.50781 4.50391,4.50781c1.094,0 2.28695,-0.42503 2.87695,-1.20703c0.039,0.45 0.40044,1.02344 1.02344,1.02344h0.36328c0.141,0 0.25781,-0.11681 0.25781,-0.25781v-8.01758h-0.00195c-0.007,-0.135 -0.11886,-0.24219 -0.25586,-0.24219h-1.13086c-0.137,0 -0.24786,0.10719 -0.25586,0.24219v0.65234c-0.692,-0.853 -1.78295,-1.20703 -2.87695,-1.20703zM34.7207,31.62695c-1.122,0 -2.04219,0.64708 -2.36719,1.20508c-0.07,-0.436 -0.30058,-0.89453 -1.01758,-0.89453h-0.36523c-0.141,0 -0.25781,0.11681 -0.25781,0.25781v7.23828v0.00195v0.77734h0.00195c0.007,0.135 0.11886,0.24219 0.25586,0.24219h1.12891c0.017,0 0.03378,-0.00091 0.05078,-0.00391c0.007,-0.001 0.01544,-0.00386 0.02344,-0.00586c0.008,-0.003 0.01544,-0.00481 0.02344,-0.00781c0.01,-0.004 0.0193,-0.01062 0.0293,-0.01562c0.005,-0.003 0.00867,-0.00481 0.01367,-0.00781c0.011,-0.007 0.0232,-0.01639 0.0332,-0.02539c0.002,-0.002 0.00291,-0.00291 0.00391,-0.00391c0.011,-0.011 0.02125,-0.02316 0.03125,-0.03516c0.028,-0.039 0.04583,-0.08477 0.04883,-0.13477v-4.73633c0,-1.256 1.01744,-2.27539 2.27344,-2.27539c1.255,0 2.27148,1.01939 2.27148,2.27539l0.00195,3.95898c0.00023,0.0031 0,0.00643 0,0.00977v0.76758h0.00195c0.007,0.135 0.11886,0.24219 0.25586,0.24219h1.13086c0.017,0 0.03378,-0.00091 0.05078,-0.00391c0.007,-0.001 0.01353,-0.00386 0.01953,-0.00586c0.009,-0.003 0.01834,-0.00577 0.02734,-0.00977c0.009,-0.004 0.01934,-0.00867 0.02734,-0.01367c0.005,-0.003 0.01062,-0.00577 0.01563,-0.00977c0.01,-0.007 0.0203,-0.01348 0.0293,-0.02148c0.002,-0.002 0.00386,-0.00386 0.00586,-0.00586c0.011,-0.01 0.0203,-0.0212 0.0293,-0.0332l0.00195,-0.00195c0.028,-0.039 0.04583,-0.08477 0.04883,-0.13477v-0.00195l-0.00195,-0.52344v-4.14844c0,-2.338 -1.47517,-3.91602 -3.82617,-3.91602zM5.50781,33.18359c1.582,0 2.86328,1.31169 2.86328,2.92969c0,1.618 -1.28228,2.93164 -2.86328,2.93164c-1.582,0 -2.86328,-1.31364 -2.86328,-2.93164c0,-1.618 1.28128,-2.92969 2.86328,-2.92969zM23.91016,33.18359c1.582,0 2.86523,1.31169 2.86523,2.92969c0,1.618 -1.28423,2.93164 -2.86523,2.93164c-1.582,0 -2.86328,-1.31364 -2.86328,-2.93164c0,-1.618 1.28128,-2.92969 2.86328,-2.92969zM44.48242,33.18359c1.582,0 2.86523,1.31169 2.86523,2.92969c0,1.618 -1.28323,2.93164 -2.86523,2.93164c-1.582,0 -2.86328,-1.31364 -2.86328,-2.93164c0,-1.618 1.28128,-2.92969 2.86328,-2.92969z"></path></g></g></svg>