<svg xmlns="http://www.w3.org/2000/svg" xmlns:xlink="http://www.w3.org/1999/xlink" viewBox="0,0,256,256" width="50px" height="50px"><g fill="#00a82d" fill-rule="nonzero" stroke="none" stroke-width="1" stroke-linecap="butt" stroke-linejoin="miter" stroke-miterlimit="10" stroke-dasharray="" stroke-dashoffset="0" font-family="none" font-weight="none" font-size="none" text-anchor="none" style="mix-blend-mode: normal"><g transform="scale(5.12,5.12)"><path d="M20,2c-2.75781,0 -5,2.24219 -5,5v5c0,0.55078 -0.44922,1 -1,1h-5c-2.16016,0 -3.9375,1.74219 -3.96094,3.88672c-0.04687,4.40234 0.43359,8.64453 1.27344,11.34375c0.96484,3.07422 2.88672,5.06641 5.40625,5.60938l7.07031,1.60938c1.08594,0.23047 2.19141,0.01172 3.10547,-0.61719c0.91406,-0.62891 1.51563,-1.57812 1.69531,-2.76562l0.16016,-2.33594c1.14844,1.4375 3.05078,2.26953 5.25,2.26953h3c2.20703,0 4,1.79297 4,4v3c0,1.65234 -1.34766,3 -3,3h-2.89453c-0.53516,0 -1.01953,-0.35937 -1.08984,-0.82422c-0.05078,-0.30469 0.02734,-0.59375 0.21875,-0.82031c0.19141,-0.22656 0.47266,-0.35547 0.76563,-0.35547h2c0.55469,0 1,-0.44922 1,-1v-4c0,-0.55078 -0.44531,-1 -1,-1h-3c-3.30859,0 -6,2.69141 -6,6v2c0,3.30859 2.69141,6 6,6h5c10,0 10,-14.18359 10,-21c0,-6.90625 -0.16406,-11.42578 -1.03125,-15.53125c-0.6875,-3.24219 -2.64453,-5.14844 -5.86719,-5.66406c-0.26172,-0.02734 -5.96484,-0.60547 -9.26172,-0.77344c-0.55469,-1.65625 -2.44922,-3.03125 -4.43359,-3.03125zM13.45313,4.54688l-7.0625,7.0625c0.78906,-0.38672 1.67578,-0.60937 2.60938,-0.60937h4v-4c0,-0.86328 0.16406,-1.6875 0.45313,-2.45312zM34.5,20c1.38281,0 2.5,1.12109 2.5,2.5c0,0.59375 -0.21484,1.12891 -0.55859,1.55859c-0.75781,-0.62891 -2.23047,-1.05859 -3.94141,-1.05859c-0.15234,0 -0.29687,0.01172 -0.44141,0.01953c-0.03906,-0.16797 -0.05859,-0.33984 -0.05859,-0.51953c0,-1.38281 1.11719,-2.5 2.5,-2.5z"></path></g></g></svg>