<svg xmlns="http://www.w3.org/2000/svg" xmlns:xlink="http://www.w3.org/1999/xlink" viewBox="0,0,245.8625,256" width="50px" height="50px"><g fill="#1268de" fill-rule="nonzero" stroke="none" stroke-width="1" stroke-linecap="butt" stroke-linejoin="miter" stroke-miterlimit="10" stroke-dasharray="" stroke-dashoffset="0" font-family="none" font-weight="none" font-size="none" text-anchor="none" style="mix-blend-mode: normal"><g transform="scale(5.56667,5.56667)"><path d="M21.95508,0c-0.24735,0.01104 -0.48243,0.11089 -0.66211,0.28125c-1.98918,2.08914 -3.15834,4.8255 -3.29297,7.70703c0.13317,2.88302 1.30247,5.62109 3.29297,7.71094l0.87695,0.87891l1.33008,1.32227l5.08594,5.08594l-5.08594,5.08789l0.79297,0.79297c2.37097,2.45968 3.75199,5.70709 3.87891,9.12109c-0.00265,0.85259 -0.10025,1.70223 -0.29102,2.5332l15.41211,-15.41211c1.17127,-1.17152 1.17127,-3.07067 0,-4.24219l-20.58789,-20.58594c-0.20175,-0.1912 -0.47227,-0.29264 -0.75,-0.28125zM16.28906,5.45508l-15.41211,15.41211c-1.17127,1.17152 -1.17127,3.07067 0,4.24219l20.58594,20.58984c0.39051,0.39042 1.02356,0.39042 1.41406,0c1.98963,-2.08884 3.15887,-4.82538 3.29297,-7.70703c-0.13463,-2.88153 -1.30379,-5.61789 -3.29297,-7.70703l-7.29297,-7.29687l5.08594,-5.08789l-0.79297,-0.79297c-2.37054,-2.45901 -3.75093,-5.70589 -3.87695,-9.11914c0.00198,-0.85252 0.09893,-1.70216 0.28906,-2.5332z"></path></g></g></svg>