<svg xmlns="http://www.w3.org/2000/svg" xmlns:xlink="http://www.w3.org/1999/xlink" viewBox="0,0,256,256" width="24px" height="24px"><g fill="#000000" fill-rule="nonzero" stroke="none" stroke-width="1" stroke-linecap="butt" stroke-linejoin="miter" stroke-miterlimit="10" stroke-dasharray="" stroke-dashoffset="0" font-family="none" font-weight="none" font-size="none" text-anchor="none" style="mix-blend-mode: normal"><g transform="scale(10.66667,10.66667)"><path d="M15.46875,1.5l-12.48828,0.5c-0.00978,0.00036 -0.01955,0.00102 -0.0293,0.00195c-0.00717,0.00057 -0.01433,0.00122 -0.02148,0.00195c-0.52313,0.03692 -0.92889,0.47166 -0.92969,0.99609v13.89453c0,0.59247 0.17602,1.17149 0.50391,1.66406l2.66406,3.99609c0.19781,0.29669 0.53864,0.46562 0.89453,0.44336l16,-1c0.52696,-0.03305 0.93745,-0.47005 0.9375,-0.99805v-15.5c-0.00022,-0.25032 -0.09431,-0.49146 -0.26367,-0.67578c-0.04027,-0.05307 -0.09074,-0.09756 -0.14844,-0.13086c-0.00065,-0.00065 -0.0013,-0.0013 -0.00195,-0.00195c-0.05844,-0.04247 -0.1213,-0.07849 -0.1875,-0.10742l-4.10156,-2.33984l0.0332,0.02148c-0.8378,-0.5694 -1.84477,-0.83953 -2.85547,-0.76562zM15.52539,2.49805c0.00586,0.0001 0.01172,0.0001 0.01758,0c0.78732,-0.05861 1.57205,0.15025 2.22461,0.59375c0.01078,0.0076 0.02186,0.01476 0.0332,0.02148l2.52344,1.43945l-13.46875,0.43555l-2.38672,-2.04688zM21,6.5332v13.52734l-14,0.875v-13.95117zM19.44141,8.50195c-1.014,0.06 -2.03378,0.10955 -3.05078,0.18555c-0.334,0.025 -0.58205,0.31386 -0.62305,0.63086c-0.019,0.148 0.02145,0.22433 0.18945,0.23633c0.308,0.023 0.61359,0.06652 0.93359,0.10352v5.86914c-0.094,-0.135 -0.14536,-0.2063 -0.19336,-0.2793c-1.31,-1.979 -2.62583,-3.95441 -3.92383,-5.94141c-0.196,-0.3 -0.37949,-0.44439 -0.77149,-0.40039c-0.917,0.101 -1.84172,0.13108 -2.76172,0.20508c-0.51,0.041 -0.81278,0.48766 -0.67578,0.97266c0.345,0.03 0.69283,0.0608 1.04883,0.0918v8.43164c-0.234,0.066 -0.46712,0.14027 -0.70312,0.19727c-0.24,0.058 -0.35244,0.21941 -0.39844,0.44141c-0.037,0.178 0.00661,0.26795 0.22461,0.25195c0.749,-0.053 1.50195,-0.08586 2.25195,-0.13086c0.31,-0.018 0.62078,-0.02422 0.92578,-0.07422c0.416,-0.069 0.6425,-0.32252 0.6875,-0.72852c-0.37,-0.082 -0.74219,-0.17214 -1.11719,-0.24414c-0.167,-0.032 -0.22366,-0.10044 -0.22266,-0.27344c0.006,-1.956 0.00486,-3.91314 0.00586,-5.86914c0,-0.064 0.01339,-0.12933 0.02539,-0.23633c0.058,0.077 0.08152,0.10858 0.10351,0.14258c1.012,1.571 2.02106,3.14589 3.03906,4.71289c0.438,0.674 0.88666,1.341 1.34766,2c0.334,0.478 0.82386,0.62967 1.38086,0.51367c0.348,-0.073 0.68244,-0.21231 1.02344,-0.32031c0.19,-0.06 0.24514,-0.18281 0.24414,-0.38281c-0.007,-2.874 -0.00391,-5.74709 -0.00391,-8.62109c0,-0.535 -0.0017,-0.53453 0.5293,-0.64453c0.488,-0.101 0.63137,-0.33984 0.48438,-0.83984z"></path></g></g></svg>