<svg xmlns="http://www.w3.org/2000/svg" xmlns:xlink="http://www.w3.org/1999/xlink" viewBox="0,0,256,256" width="48px" height="48px"><g fill="#7318a8" fill-rule="nonzero" stroke="none" stroke-width="1" stroke-linecap="butt" stroke-linejoin="miter" stroke-miterlimit="10" stroke-dasharray="" stroke-dashoffset="0" font-family="none" font-weight="none" font-size="none" text-anchor="none" style="mix-blend-mode: normal"><g transform="scale(5.33333,5.33333)"><path d="M16.5,5c-2.481,0 -4.5,2.019 -4.5,4.5v1.5h8c3.309,0 6,2.691 6,6v14c0,3.309 -2.691,6 -6,6h-8v1.5c0,2.481 2.019,4.5 4.5,4.5h17.5v-25c0,-1.105 0.895,-2 2,-2h9v-6.5c0,-2.481 -2.019,-4.5 -4.5,-4.5zM6,14c-1.657,0 -3,1.343 -3,3v14c0,1.657 1.343,3 3,3h14c1.657,0 3,-1.343 3,-3v-14c0,-1.657 -1.343,-3 -3,-3zM10.01172,19c0.46622,0.01331 0.91089,0.25005 1.18164,0.6543l3.1875,4.78125v-3.96484c0,-0.812 0.65675,-1.4707 1.46875,-1.4707c0.812,0 1.4707,0.6587 1.4707,1.4707v7.81836c0,0.647 -0.42492,1.2202 -1.04492,1.4082c-0.141,0.043 -0.28378,0.06445 -0.42578,0.06445c-0.482,0 -0.94466,-0.23925 -1.22266,-0.65625l-3.1875,-4.7793v3.96484c0,0.812 -0.65675,1.4707 -1.46875,1.4707c-0.812,0 -1.4707,-0.6587 -1.4707,-1.4707v-7.82031c0,-0.647 0.42492,-1.21825 1.04492,-1.40625c0.15475,-0.04725 0.31139,-0.06889 0.4668,-0.06445zM37,19v6h8v-6zM37,28v6h8v-6zM37,37v6h4c2.209,0 4,-1.791 4,-4v-2z"></path></g></g></svg>